<?xml version="1.0" encoding="UTF-8"?>
<svg version="1.1" xmlns="http://www.w3.org/2000/svg" width="1536" height="1024">
<path d="M0 0 C506.88 0 1013.76 0 1536 0 C1536 337.92 1536 675.84 1536 1024 C1029.12 1024 522.24 1024 0 1024 C0 686.08 0 348.16 0 0 Z " fill="#FDFCFB" transform="translate(0,0)"/>
<path d="M0 0 C1.28794464 -0.0071553 2.57588928 -0.01431061 3.90286255 -0.02168274 C5.32331824 -0.02452276 6.74377419 -0.02723452 8.16423035 -0.02983093 C9.66608333 -0.03610044 11.16793477 -0.04274768 12.66978455 -0.04974365 C17.5978539 -0.07074242 22.52592338 -0.0811476 27.45402527 -0.09111023 C29.15654198 -0.09516046 30.85905854 -0.09927746 32.56157494 -0.10346031 C40.56849169 -0.12250908 48.57539929 -0.1367363 56.58233434 -0.14507228 C65.79082566 -0.15481978 74.99907502 -0.18107527 84.20748121 -0.22157317 C91.34492997 -0.25187276 98.48230997 -0.2665545 105.61982173 -0.26985329 C109.87258101 -0.27218959 114.12508176 -0.28096154 118.37777138 -0.30631447 C122.38914324 -0.32984145 126.40009093 -0.3337313 130.41151428 -0.32355309 C131.87062694 -0.3230634 133.32976226 -0.32921279 134.78880882 -0.34310913 C155.94807567 -0.53308465 174.78864698 5.84261449 190.16740417 20.66035461 C205.16511339 35.99033936 210.3110984 55.26017825 210.08293152 76.13545227 C210.08053699 77.61463255 210.07964389 79.09381592 210.08015442 80.57299805 C210.07705927 83.64292498 210.06074517 86.71237399 210.03361511 89.78218079 C209.99948896 93.68983004 209.99199295 97.59696169 209.99350548 101.50474262 C209.99295852 104.54791068 209.98194195 107.59096877 209.96750259 110.63409996 C209.96120467 112.07440044 209.95721242 113.51471316 209.95571518 114.95502663 C209.90885641 136.44127108 203.82443947 154.01646015 188.92277527 169.86982727 C174.60074641 184.0459611 156.30289761 190.47045994 136.42082214 190.50263977 C133.27120516 190.48358769 130.12298095 190.44349029 126.9737854 190.38850403 C123.57374967 190.33338225 120.17490554 190.31132538 116.77445984 190.29853821 C107.11919896 190.25970496 97.4651147 190.18882776 87.81095886 190.03437805 C81.87221979 189.94171367 75.93554993 189.90861548 69.99612427 189.91221619 C67.75394038 189.90231009 65.5117301 189.87062395 63.27020264 189.81547546 C48.27008227 189.45528081 39.22798226 191.30722293 28.14985847 201.7515192 C26.08067704 203.64164552 23.83368156 205.19463363 21.50090027 206.74092102 C20.78192566 207.22762268 20.06295105 207.71432434 19.32218933 208.21577454 C18.61674988 208.68813538 17.91131042 209.16049622 17.18449402 209.64717102 C10.15750079 214.39872242 3.1999756 219.23384527 -3.68440247 224.19013977 C-14.38570509 231.82840288 -14.38570509 231.82840288 -19.50300598 232.64717102 C-23.15780589 232.01155365 -24.77138341 230.7537936 -27.37800598 228.14717102 C-29.14274611 225.23644608 -29.6085029 223.19623239 -29.49055481 219.81269836 C-29.46846451 218.96436432 -29.44637421 218.11603027 -29.4236145 217.24198914 C-29.394384 216.33155853 -29.3651535 215.42112793 -29.33503723 214.48310852 C-29.31147566 212.53653191 -29.29140579 210.58991048 -29.27449036 208.64326477 C-29.24191829 205.58638826 -29.19100035 202.53576675 -29.07991028 199.48066711 C-28.27039168 188.4471754 -28.27039168 188.4471754 -31.62434387 178.2936554 C-34.2002963 175.66171289 -36.8583067 173.96729031 -40.05110168 172.10957336 C-52.24430926 164.91730783 -59.0644358 149.90857113 -62.54450989 136.69941711 C-64.59356894 128.49749218 -64.93132606 120.48116077 -64.83894348 112.06123352 C-64.83654823 110.58348249 -64.83565601 109.10572835 -64.83616638 107.62797546 C-64.83307423 104.56402408 -64.81678255 101.50055257 -64.78962708 98.4367218 C-64.75547056 94.53694813 -64.74800595 90.63769311 -64.74951744 86.73778725 C-64.74897056 83.69891032 -64.73795555 80.66014356 -64.72351456 77.62130356 C-64.71721796 76.18379418 -64.7132247 74.74627254 -64.71172714 73.30875015 C-64.66414801 51.54384252 -58.67996688 34.9451901 -43.69050598 18.95967102 C-32.05718908 7.77037385 -16.31085549 0.06236763 0 0 Z " fill="#26C1BD" transform="translate(372.3780059814453,386.8528289794922)"/>
<path d="M0 0 C2.16975341 1.54784956 4.03658318 3.18383944 6 5 C6.33 2.69 6.66 0.38 7 -2 C12.28 -2 17.56 -2 23 -2 C23.06799509 6.58028355 23.12294181 15.16035478 23.15543652 23.74083614 C23.17103868 27.72584547 23.19217616 31.71065961 23.22631836 35.69555664 C23.25910783 39.54702718 23.27689392 43.39831092 23.28463173 47.24991035 C23.29014033 48.71340433 23.30089662 50.17688902 23.31719017 51.64030266 C23.41482043 60.77917872 23.20074232 68.78397547 18.3125 76.75 C10.56794967 84.28523816 2.55301126 86.04016423 -8 86.3125 C-17.2833613 86.13282204 -23.50237863 84.33142886 -30.3359375 77.90625 C-33.45685713 74.33111202 -35 70.81401789 -35 66 C-32.22754986 65.86512405 -29.46162912 65.76599193 -26.6875 65.6875 C-25.90181641 65.64560547 -25.11613281 65.60371094 -24.30664062 65.56054688 C-22.09879882 65.51357152 -20.15692247 65.51921595 -18 66 C-16.08203125 68.45703125 -16.08203125 68.45703125 -15 71 C-11.07466952 72.96266524 -6.28932328 72.34140779 -2 72 C2.31790333 70.29082993 3.95516029 68.10119964 6 64 C6.36012333 60.87646211 6.36012333 60.87646211 6.1875 57.6875 C6.16042969 56.61886719 6.13335938 55.55023437 6.10546875 54.44921875 C6.05326172 53.23685547 6.05326172 53.23685547 6 52 C5.113125 52.78375 4.22625 53.5675 3.3125 54.375 C-1.92033775 58.99936824 -7.16556775 59.44105219 -13.9296875 59.31640625 C-21.11819693 58.57560566 -27.01235592 55.1036358 -32 50 C-38.06975453 40.68503017 -39.57919626 29.64066212 -37.34765625 18.84375 C-35.09486504 11.18619361 -31.75335745 5.04747964 -24.91015625 0.66015625 C-16.58503122 -3.69619409 -8.50803389 -4.4001145 0 0 Z " fill="#0F100E" transform="translate(879,534)"/>
<path d="M0 0 C5.28 0 10.56 0 16 0 C16 27.72 16 55.44 16 84 C11.05 84 6.1 84 1 84 C1 81.03 1 78.06 1 75 C0.34 75 -0.32 75 -1 75 C-1.226875 75.5775 -1.45375 76.155 -1.6875 76.75 C-4.28392945 81.20102192 -8.21567909 83.42781522 -13 85 C-20.8535818 85.80693911 -28.59740265 86.1105934 -35 81 C-42.81637691 73.84817335 -45.47761714 66.15065058 -46.23828125 55.73828125 C-46.46185142 45.41875265 -44.80225465 36.12491527 -38 28 C-31.42253921 22.14239007 -25.47052312 19.49232681 -16.59765625 19.6796875 C-9.92561521 20.50240534 -5.68942689 23.31057311 -1 28 C-0.67 18.76 -0.34 9.52 0 0 Z " fill="#0E0F0D" transform="translate(817,511)"/>
<path d="M0 0 C16 0 16 0 20.24389648 3.63330078 C21.34387428 5.28368003 22.38443909 6.97478485 23.37109375 8.6953125 C23.94859879 9.59434296 24.52610382 10.49337341 25.12110901 11.41964722 C26.94840762 14.29085295 28.69228758 17.20333499 30.4375 20.125 C31.63213309 22.03323633 32.83196741 23.93822682 34.03710938 25.83984375 C36.27819034 29.39270856 38.48694274 32.96146957 40.66186523 36.55517578 C44.67407042 43.09947478 48.84898045 49.54285848 53 56 C53.33 37.52 53.66 19.04 54 0 C59.28 0 64.56 0 70 0 C70 27.72 70 55.44 70 84 C54 84 54 84 49.6484375 80.2590332 C48.50010436 78.56023426 47.41080969 76.82043803 46.375 75.05078125 C45.77292725 74.12718307 45.17085449 73.2035849 44.55053711 72.2519989 C42.6457337 69.30309148 40.82375425 66.31205129 39 63.3125 C37.74863712 61.34762368 36.49216314 59.38599261 35.23046875 57.42773438 C31.75057658 51.99270693 28.36697756 46.50579156 25 41 C22.36 36.71 19.72 32.42 17 28 C16.67 46.48 16.34 64.96 16 84 C10.72 84 5.44 84 0 84 C0 56.28 0 28.56 0 0 Z " fill="#0D0E0C" transform="translate(625,511)"/>
<path d="M0 0 C3.15520909 2.20423788 5.49799446 4.61947109 7.6875 7.8125 C8.1 7.34199219 8.5125 6.87148438 8.9375 6.38671875 C14.32019724 0.58349829 19.15976629 -2.18171743 27.125 -2.625 C32.99756468 -2.38199732 38.12782965 -0.49557882 42.515625 3.4609375 C46.68454297 8.09531718 48.94803627 12.44087738 48.91455078 18.78637695 C48.91439972 19.74699539 48.91424866 20.70761383 48.91409302 21.69734192 C48.90377045 22.7214769 48.89344788 23.74561188 48.8828125 24.80078125 C48.8799826 25.85911667 48.87715271 26.91745209 48.87423706 28.00785828 C48.8630629 31.38035498 48.83796307 34.75258387 48.8125 38.125 C48.80246664 40.4147097 48.79334141 42.70442357 48.78515625 44.99414062 C48.76313255 50.60036324 48.72862141 56.20638625 48.6875 61.8125 C43.4075 61.8125 38.1275 61.8125 32.6875 61.8125 C32.67291748 60.56637939 32.65833496 59.32025879 32.64331055 58.03637695 C32.585257 53.40490288 32.50802424 48.77391138 32.42504883 44.14282227 C32.39183273 42.13997236 32.36379048 40.1370296 32.34106445 38.1340332 C32.30745766 35.25171406 32.25513852 32.37024332 32.19921875 29.48828125 C32.19282883 28.59538895 32.1864389 27.70249664 32.17985535 26.782547 C32.05612437 21.52871754 31.59124888 17.71624888 27.6875 13.8125 C23.0496284 13.29718093 19.01915635 12.87059673 15.125 15.625 C13.08154125 18.73461115 12.56051683 21.27957571 12.48217773 24.91674805 C12.46223251 25.73737228 12.44228729 26.55799652 12.42173767 27.40348816 C12.39666893 28.7254998 12.39666893 28.7254998 12.37109375 30.07421875 C12.35031265 30.98001175 12.32953156 31.88580475 12.30812073 32.81904602 C12.24273442 35.71262016 12.18379096 38.60628507 12.125 41.5 C12.0818044 43.46159793 12.03818977 45.42318668 11.99414062 47.38476562 C11.88706418 52.19391739 11.78576586 57.00316046 11.6875 61.8125 C6.4075 61.8125 1.1275 61.8125 -4.3125 61.8125 C-4.32708252 60.63743896 -4.34166504 59.46237793 -4.35668945 58.25170898 C-4.41489511 53.86989728 -4.49212608 49.48858752 -4.57495117 45.10717773 C-4.60809607 43.21500833 -4.63616017 41.32274254 -4.65893555 39.43041992 C-4.69267421 36.70189546 -4.74499865 33.974246 -4.80078125 31.24609375 C-4.80717117 30.40727158 -4.8135611 29.5684494 -4.82014465 28.70420837 C-4.95199324 23.37341323 -5.78120762 19.5364153 -8.3125 14.8125 C-11.78781087 13.07484457 -15.5213001 13.21664648 -19.3125 13.8125 C-22.59425318 16.34218474 -24.00493777 17.88981331 -25.3125 21.8125 C-25.42485161 23.14701263 -25.48825649 24.48604389 -25.51782227 25.82495117 C-25.53776749 26.62555466 -25.55771271 27.42615814 -25.57826233 28.25102234 C-25.60333107 29.54022331 -25.60333107 29.54022331 -25.62890625 30.85546875 C-25.64968735 31.7390657 -25.67046844 32.62266266 -25.69187927 33.53303528 C-25.75725754 36.35527785 -25.81620528 39.17761335 -25.875 42 C-25.91819637 43.91342106 -25.96181102 45.82683273 -26.00585938 47.74023438 C-26.11292695 52.43089437 -26.21422752 57.12164783 -26.3125 61.8125 C-31.5925 61.8125 -36.8725 61.8125 -42.3125 61.8125 C-42.3125 41.0225 -42.3125 20.2325 -42.3125 -1.1875 C-37.0325 -1.1875 -31.7525 -1.1875 -26.3125 -1.1875 C-25.9825 0.7925 -25.6525 2.7725 -25.3125 4.8125 C-24.013125 3.636875 -24.013125 3.636875 -22.6875 2.4375 C-16.12741082 -2.96042886 -7.45184393 -4.41282378 0 0 Z " fill="#0F100E" transform="translate(913.3125,430.1875)"/>
<path d="M0 0 C6.28258957 5.16568476 11.8837366 11.2300629 13.8125 19.3125 C14.91717868 31.56439079 13.88396286 41.5718392 5.8359375 51.30078125 C-0.63717788 57.73640754 -9.04206923 60.3332961 -18 60.6875 C-27.04358179 60.49556381 -33.87805774 57.42299906 -40.43359375 51.23828125 C-47.8238051 43.12386211 -49.67640459 34.9034759 -49.49609375 24.07421875 C-48.75605152 15.0531977 -44.82022802 8.36553837 -38.1875 2.3125 C-26.50957443 -6.72180069 -12.81073694 -6.78215485 0 0 Z " fill="#0F0F0E" transform="translate(1019.1875,432.6875)"/>
<path d="M0 0 C4.25199177 4.48182917 6.2596993 8.7869826 6.22705078 14.97387695 C6.22689972 15.93449539 6.22674866 16.89511383 6.22659302 17.88484192 C6.21627045 18.9089769 6.20594788 19.93311188 6.1953125 20.98828125 C6.1924826 22.04661667 6.18965271 23.10495209 6.18673706 24.19535828 C6.1755629 27.56785498 6.15046307 30.94008387 6.125 34.3125 C6.11496664 36.6022097 6.10584141 38.89192357 6.09765625 41.18164062 C6.07563255 46.78786324 6.04112141 52.39388625 6 58 C1.05 58 -3.9 58 -9 58 C-9.66 56.02 -10.32 54.04 -11 52 C-11.886875 52.78375 -12.77375 53.5675 -13.6875 54.375 C-18.96581201 59.0395548 -24.18386331 59.39264167 -30.99609375 59.2421875 C-37.23064944 58.73953151 -41.23418947 57.20015574 -45.4375 52.5 C-49.69704244 47.20748951 -49.66013701 41.55552727 -49 35 C-47.10101173 29.35463814 -43.20178462 25.64099173 -37.97265625 22.9609375 C-33.66956613 21.56992545 -29.36675535 21.30805371 -24.875 20.9375 C-23.08045843 20.78306221 -21.28617071 20.6256378 -19.4921875 20.46484375 C-18.70183105 20.399021 -17.91147461 20.33319824 -17.09716797 20.26538086 C-14.81135922 20.04524581 -14.81135922 20.04524581 -12 19 C-11.05392193 16.25038489 -11.05392193 16.25038489 -11 13 C-12.68169647 9.8990956 -12.68169647 9.8990956 -16 8 C-20.9257821 7.22935345 -25.75104433 7.13995027 -30 10 C-30.66 11.32 -31.32 12.64 -32 14 C-37.28 14 -42.56 14 -48 14 C-44.42099538 2.01033451 -44.42099538 2.01033451 -38.66015625 -1.375 C-25.96973565 -7.93451256 -12.1153488 -8.15456169 0 0 Z " fill="#0F0F0E" transform="translate(1182,434)"/>
<path d="M0 0 C8.7832511 9.1917744 9.6875 18.31767708 9.6875 30.8125 C-4.1725 30.8125 -18.0325 30.8125 -32.3125 30.8125 C-30.24956763 40.14979088 -30.24956763 40.14979088 -24.3125 45.8125 C-18.75872276 46.6675198 -14.03408591 46.8251976 -9.125 43.9375 C-7.2788289 41.94530798 -7.2788289 41.94530798 -6.3125 39.8125 C-1.3625 39.8125 3.5875 39.8125 8.6875 39.8125 C6.82063348 47.39664526 4.27909849 51.51515045 -2.3125 55.8125 C-10.26759858 60.26545359 -21.67381162 60.39426194 -30.3203125 57.96875 C-38.15809844 54.42137288 -43.36683325 48.66333295 -46.75 40.8125 C-50.83560548 28.07814527 -48.55895251 16.148129 -42.625 4.5 C-31.17463741 -8.80717815 -14.0320326 -9.26643662 0 0 Z " fill="#0F0F0E" transform="translate(959.3125,537.1875)"/>
<path d="M0 0 C6.56423026 4.81052125 10.05540427 11.22161708 12 19 C12 23.62 12 28.24 12 33 C-1.86 33 -15.72 33 -30 33 C-27.01480325 43.0064156 -27.01480325 43.0064156 -23.875 46.6875 C-19.57430951 48.6508587 -15.64676391 48.63538946 -11 48 C-7.88062826 46.67260777 -6.48029397 45.85244228 -4.8203125 42.90625 C-3 41 -3 41 0.35546875 40.609375 C1.62003906 40.65578125 2.88460937 40.7021875 4.1875 40.75 C6.09595703 40.80414063 6.09595703 40.80414063 8.04296875 40.859375 C9.01878906 40.90578125 9.99460937 40.9521875 11 41 C10.14143644 47.16448636 8.25597572 50.86596891 3.6875 55.1875 C-4.58327821 60.7654667 -13.2510455 61.85090625 -23 61 C-30.2019531 59.30662293 -35.53230382 55.89355667 -40 50 C-46.02271083 40.01111374 -46.18659291 29.41358148 -45 18 C-42.75253892 9.91411603 -38.12546668 3.47961324 -31 -1 C-21.02381215 -6.09812541 -9.75451187 -5.14273643 0 0 Z " fill="#111210" transform="translate(724,432)"/>
<path d="M0 0 C6.91479319 4.46414809 9.33663108 10.50118608 11.0390625 18.31640625 C11.39063618 21.78970957 11.39278725 25.21109351 11.33203125 28.69921875 C11.32778641 29.63949921 11.32354156 30.57977966 11.31916809 31.54855347 C11.30255122 34.51314546 11.26493247 37.47702431 11.2265625 40.44140625 C11.21149365 42.46743801 11.19780912 44.49348056 11.18554688 46.51953125 C11.15270366 51.45209219 11.10104176 56.38412888 11.0390625 61.31640625 C5.4290625 61.31640625 -0.1809375 61.31640625 -5.9609375 61.31640625 C-5.9906665 59.50052002 -5.9906665 59.50052002 -6.02099609 57.64794922 C-6.09727086 53.14139585 -6.1859543 48.63515616 -6.27832031 44.12890625 C-6.31651983 42.18137827 -6.35138825 40.2337819 -6.3828125 38.28613281 C-6.42865946 35.48087179 -6.48662116 32.67607786 -6.546875 29.87109375 C-6.56420181 28.57230789 -6.56420181 28.57230789 -6.58187866 27.24728394 C-6.69390883 22.62168153 -6.95218231 18.57962817 -8.9609375 14.31640625 C-13.58446465 12.77523053 -18.13798466 12.66770499 -22.9609375 13.31640625 C-25.85777618 15.51800365 -27.35390981 17.10235087 -28.9609375 20.31640625 C-29.11839576 23.37682565 -29.21960627 26.41782525 -29.27734375 29.48046875 C-29.29812485 30.3876767 -29.31890594 31.29488464 -29.34031677 32.22958374 C-29.40580885 35.13344605 -29.46469564 38.0374003 -29.5234375 40.94140625 C-29.56662305 42.90756167 -29.61023735 44.87370772 -29.65429688 46.83984375 C-29.76148989 51.66526987 -29.86275831 56.49078865 -29.9609375 61.31640625 C-35.2409375 61.31640625 -40.5209375 61.31640625 -45.9609375 61.31640625 C-45.9609375 40.52640625 -45.9609375 19.73640625 -45.9609375 -1.68359375 C-40.6809375 -1.68359375 -35.4009375 -1.68359375 -29.9609375 -1.68359375 C-29.6309375 0.62640625 -29.3009375 2.93640625 -28.9609375 5.31640625 C-28.28998047 4.70152344 -28.28998047 4.70152344 -27.60546875 4.07421875 C-19.22813666 -3.39214546 -10.37048202 -5.25853063 0 0 Z " fill="#10110F" transform="translate(1086.9609375,430.68359375)"/>
<path d="M0 0 C5.28 0 10.56 0 16 0 C16.01458252 1.17506104 16.02916504 2.35012207 16.04418945 3.56079102 C16.10239511 7.94260272 16.17962608 12.32391248 16.26245117 16.70532227 C16.29559607 18.59749167 16.32366017 20.48975746 16.34643555 22.38208008 C16.38017421 25.11060454 16.43249865 27.838254 16.48828125 30.56640625 C16.49467117 31.40522842 16.5010611 32.2440506 16.50764465 33.10829163 C16.63962307 38.44433584 17.42942346 42.28683408 20 47 C24.05366375 49.7024425 27.24531551 49.52736817 32 49 C35.43170765 47.65715788 36.6383672 46.57236925 38.60083008 43.46630859 C40.37393715 39.07360676 40.47620169 35.35516916 40.51171875 30.6640625 C40.52966995 29.78471039 40.54762115 28.90535828 40.56611633 27.99935913 C40.62002812 25.20795395 40.65405329 22.41671789 40.6875 19.625 C40.72069 17.72523698 40.75518121 15.82549623 40.79101562 13.92578125 C40.87574349 9.28397656 40.94264561 4.64222035 41 0 C46.28 0 51.56 0 57 0 C57 20.79 57 41.58 57 63 C51.72 63 46.44 63 41 63 C40.505 60.03 40.505 60.03 40 57 C39.52949219 57.42152344 39.05898438 57.84304688 38.57421875 58.27734375 C37.95160156 58.82519531 37.32898438 59.37304688 36.6875 59.9375 C36.07261719 60.48277344 35.45773437 61.02804687 34.82421875 61.58984375 C31.07340146 64.4892978 27.26042191 64.195722 22.6875 64.25 C21.39199219 64.27578125 20.09648438 64.3015625 18.76171875 64.328125 C13.35788548 63.8567626 9.36641272 61.99634417 5.8125 57.875 C5.34457031 57.35679687 4.87664063 56.83859375 4.39453125 56.3046875 C0.17582744 49.33259998 -0.42475614 42.25980219 -0.29296875 34.27734375 C-0.28872391 33.29125626 -0.28447906 32.30516876 -0.28010559 31.28919983 C-0.26345171 28.17167651 -0.2258248 25.0548245 -0.1875 21.9375 C-0.17243597 19.81055628 -0.15875059 17.68360232 -0.14648438 15.55664062 C-0.11359182 10.37083918 -0.0619026 5.185533 0 0 Z " fill="#0D0E0C" transform="translate(706,532)"/>
<path d="M0 0 C22.44 0 44.88 0 68 0 C68 4.95 68 9.9 68 15 C59.42 15 50.84 15 42 15 C42 38.1 42 61.2 42 85 C36.72 85 31.44 85 26 85 C26 61.57 26 38.14 26 14 C17.42 14 8.84 14 0 14 C0 9.38 0 4.76 0 0 Z " fill="#10110F" transform="translate(619,407)"/>
<path d="M0 0 C4.70624025 3.59083196 6.40347252 7.09750413 8.00390625 12.74609375 C8.00390625 13.40609375 8.00390625 14.06609375 8.00390625 14.74609375 C5.564564 14.88111269 3.13266521 14.98013272 0.69140625 15.05859375 C0.00111328 15.10048828 -0.68917969 15.14238281 -1.40039062 15.18554688 C-3.421875 15.234375 -3.421875 15.234375 -6.99609375 14.74609375 C-8.7890625 12.2890625 -8.7890625 12.2890625 -9.99609375 9.74609375 C-14.04584052 8.39617816 -17.76203599 8.19681058 -21.99609375 8.74609375 C-24.73246676 10.22902218 -24.73246676 10.22902218 -25.99609375 12.74609375 C-26.24762634 15.40513844 -26.24762634 15.40513844 -24.99609375 17.74609375 C-21.08569002 19.71572515 -17.09874797 20.33393558 -12.80859375 21.05859375 C-4.99268615 22.51267166 1.97170351 24.56597868 7.56640625 30.43359375 C10.53118692 35.20302352 10.58817823 39.19550989 10.00390625 44.74609375 C8.3399891 50.06339422 5.76866979 53.75426548 1.00390625 56.74609375 C-9.00222479 61.57047836 -20.31529038 62.60730332 -30.99609375 59.18359375 C-35.88630926 57.13099961 -39.53254282 54.5186872 -41.99609375 49.74609375 C-42.65609375 47.10609375 -43.31609375 44.46609375 -43.99609375 41.74609375 C-38.38609375 41.74609375 -32.77609375 41.74609375 -26.99609375 41.74609375 C-26.33609375 43.06609375 -25.67609375 44.38609375 -24.99609375 45.74609375 C-20.92663842 48.45619614 -16.71444687 48.27501946 -11.99609375 47.74609375 C-8.90253717 46.84429039 -8.90253717 46.84429039 -6.99609375 44.74609375 C-6.57862767 41.61974166 -6.57862767 41.61974166 -6.99609375 38.74609375 C-11.54992839 36.46917643 -15.79914333 35.32709574 -20.80859375 34.37109375 C-28.09473756 32.87351574 -36.06598055 31.06423652 -40.55859375 24.62109375 C-42.89494934 19.94838257 -43.5185589 15.92145611 -42.99609375 10.74609375 C-40.91233115 4.61738022 -36.68493249 0.95443443 -31.25390625 -2.296875 C-21.69443116 -6.66633464 -8.81946014 -5.54020882 0 0 Z " fill="#10100F" transform="translate(785.99609375,432.25390625)"/>
<path d="M0 0 C2.2734375 0.00390625 2.2734375 0.00390625 5 1 C6.39386806 3.65540687 7.52213619 6.16852513 8.625 8.9375 C11.05899783 14.66187196 11.05899783 14.66187196 15.71484375 18.46875 C18.54000967 18.93379789 21.14084305 19.05514694 24 19 C25.39956187 19.18160405 26.7966439 19.38568266 28.1875 19.625 C29.115625 19.74875 30.04375 19.8725 31 20 C31.83984375 22.16796875 31.83984375 22.16796875 32 25 C30.22974854 27.0038887 28.5785692 28.59992509 26.5625 30.3125 C22.75019217 33.72633519 22.75019217 33.72633519 20.1953125 38.0703125 C20.18647292 40.18297279 20.5120399 41.9417623 21 44 C21.33474189 46.1664495 21.66799983 48.33312865 22 50.5 C22.32693786 52.33448463 22.65807332 54.16824992 23 56 C21.4296875 57.24609375 21.4296875 57.24609375 19 58 C15.90456549 56.48211826 13.16950296 54.75771219 10.30859375 52.85351562 C7.38069286 51.01484468 5.43036607 49.99780425 1.9375 50.015625 C-2.57802796 51.52880724 -6.23370013 54.10350581 -10.1953125 56.69921875 C-13 58 -13 58 -15.3671875 57.20703125 C-15.90601563 56.80871094 -16.44484375 56.41039062 -17 56 C-16.855625 55.14277344 -16.71125 54.28554688 -16.5625 53.40234375 C-16.00038153 49.93985014 -15.49265201 46.47299312 -15 43 C-14.814375 41.72125 -14.62875 40.4425 -14.4375 39.125 C-15.58995226 32.72248747 -22.04788818 28.75159986 -27 25 C-26.125 20.125 -26.125 20.125 -25 19 C-21.63660503 18.62001914 -18.27676957 18.27757688 -14.90234375 18.01367188 C-10.66860743 17.60096003 -10.66860743 17.60096003 -7.19140625 15.34765625 C-5.66467987 12.33925444 -4.1972407 9.32720157 -2.8125 6.25 C-2.28269531 5.07953125 -1.75289063 3.9090625 -1.20703125 2.703125 C-0.80871094 1.81109375 -0.41039062 0.9190625 0 0 Z " fill="#101311" transform="translate(443,447)"/>
<path d="M0 0 C1.65 0 3.3 0 5 0 C5.36609375 1.12019531 5.7321875 2.24039062 6.109375 3.39453125 C8.85694534 11.77376118 8.85694534 11.77376118 14.890625 17.6953125 C17.96594971 18.42937242 20.84674334 18.81250906 24 19 C25.41828471 19.21892985 26.8353869 19.44598069 28.25 19.6875 C29.1575 19.790625 30.065 19.89375 31 20 C31.8125 21.6875 31.8125 21.6875 32 24 C29.9375 26.3125 29.9375 26.3125 27 29 C22.7701592 32.8763102 22.7701592 32.8763102 20.5859375 38.02734375 C20.56029516 40.39071283 20.74485737 42.64981295 21 45 C21.08121094 46.06992187 21.16242188 47.13984375 21.24609375 48.2421875 C21.46958658 51.16478608 21.72350739 54.08201548 22 57 C21.01 57.33 20.02 57.66 19 58 C16.01137586 56.39616692 13.1942547 54.65756016 10.35742188 52.8046875 C7.41647207 50.99389817 5.41947309 49.9973282 1.93359375 50.01953125 C-2.58158693 51.52859963 -6.23520983 54.10449499 -10.1953125 56.69921875 C-13 58 -13 58 -15.3671875 57.20703125 C-15.90601563 56.80871094 -16.44484375 56.41039062 -17 56 C-16.855625 55.05898438 -16.71125 54.11796875 -16.5625 53.1484375 C-16.376875 51.90320313 -16.19125 50.65796875 -16 49.375 C-15.814375 48.14523437 -15.62875 46.91546875 -15.4375 45.6484375 C-14.35269387 39.19351776 -14.35269387 39.19351776 -16.86328125 33.515625 C-18.07564453 32.39414062 -18.07564453 32.39414062 -19.3125 31.25 C-20.11300781 30.49203125 -20.91351563 29.7340625 -21.73828125 28.953125 C-24.04040598 26.88351427 -24.04040598 26.88351427 -27 25 C-27.1875 22.375 -27.1875 22.375 -27 20 C-22.36204604 18.87066369 -17.96489802 17.96426868 -13.1875 17.75 C-9.76368428 17.38210299 -9.24021236 17.25355749 -6.75 14.625 C-6.12220221 13.43915973 -5.54669304 12.22534646 -5 11 C-4.5565625 10.0615625 -4.113125 9.123125 -3.65625 8.15625 C-2.40159002 5.45176071 -1.18726837 2.73460993 0 0 Z " fill="#101312" transform="translate(375,447)"/>
<path d="M0 0 C2.2734375 0.00390625 2.2734375 0.00390625 5 1 C6.39386806 3.65540687 7.52213619 6.16852513 8.625 8.9375 C11.05899783 14.66187196 11.05899783 14.66187196 15.71484375 18.46875 C18.54000967 18.93379789 21.14084305 19.05514694 24 19 C25.39956187 19.18160405 26.7966439 19.38568266 28.1875 19.625 C29.115625 19.74875 30.04375 19.8725 31 20 C31.65795898 21.8269043 31.65795898 21.8269043 32 24 C29.57194502 26.66072795 27.04060946 28.97209087 24.31445312 31.31445312 C21.21819642 34.15482085 20.08894305 35.27507482 19.55859375 39.59765625 C19.91495952 42.34451098 20.29955337 44.94968299 21 47.625 C21.77873729 50.83317829 22.21441636 53.67654641 22 57 C20.3125 57.67578125 20.3125 57.67578125 18 58 C15.5625 56.85546875 15.5625 56.85546875 13 55.1875 C7.73450348 51.34899495 7.73450348 51.34899495 1.62890625 50.14453125 C-2.73666561 51.56512596 -6.33135289 54.21266928 -10.16015625 56.69921875 C-13 58 -13 58 -15.37109375 57.20703125 C-15.90863281 56.80871094 -16.44617188 56.41039062 -17 56 C-16.855625 55.14277344 -16.71125 54.28554688 -16.5625 53.40234375 C-16.376875 52.25894531 -16.19125 51.11554688 -16 49.9375 C-15.814375 48.81214844 -15.62875 47.68679688 -15.4375 46.52734375 C-15.2209375 44.78130859 -15.2209375 44.78130859 -15 43 C-14.8453125 41.8346875 -14.690625 40.669375 -14.53125 39.46875 C-15.2044262 34.48724611 -17.75189747 32.66773671 -21.5 29.5625 C-22.12003906 29.02173828 -22.74007813 28.48097656 -23.37890625 27.92382812 C-24.90402913 26.59814439 -26.45006152 25.29658315 -28 24 C-27.125 20.125 -27.125 20.125 -26 19 C-22.45002124 18.68687754 -18.90469083 18.37645582 -15.34570312 18.18945312 C-11.0962954 17.81310833 -9.53585714 17.61354318 -6.62890625 14.28515625 C-6.09136719 13.20105469 -5.55382812 12.11695313 -5 11 C-4.51015625 10.01257813 -4.0203125 9.02515625 -3.515625 8.0078125 C-3.09796875 7.05648438 -2.6803125 6.10515625 -2.25 5.125 C-1.82203125 4.15820312 -1.3940625 3.19140625 -0.953125 2.1953125 C-0.63859375 1.47085937 -0.3240625 0.74640625 0 0 Z " fill="#101211" transform="translate(512,447)"/>
<path d="M0 0 C4.95 0 9.9 0 15 0 C15 5.28 15 10.56 15 16 C19.29 16 23.58 16 28 16 C28 20.29 28 24.58 28 29 C23.71 29 19.42 29 15 29 C15.09357699 33.50272703 15.19967925 38.004919 15.31738281 42.50708008 C15.35565798 44.03857339 15.39051349 45.57015615 15.421875 47.10180664 C15.46755807 49.3038733 15.52554537 51.50532496 15.5859375 53.70703125 C15.59748871 54.39150833 15.60903992 55.07598541 15.62094116 55.78120422 C15.73273744 59.38460837 15.94394553 60.9159183 18 64 C20.42521494 64.58189266 20.42521494 64.58189266 23.125 64.6875 C24.73375 64.790625 26.3425 64.89375 28 65 C28 69.62 28 74.24 28 79 C10.37743824 79.90115373 10.37743824 79.90115373 4.4453125 75.6796875 C-0.08088479 70.41951227 -0.41718132 65.47783333 -0.29296875 58.8828125 C-0.28872391 58.02565643 -0.28447906 57.16850037 -0.28010559 56.28536987 C-0.26339886 53.56491836 -0.22576219 50.84522518 -0.1875 48.125 C-0.17244278 46.27344825 -0.1587562 44.42188481 -0.14648438 42.5703125 C-0.11352165 38.04658567 -0.06179537 33.52342113 0 29 C-2.97 29 -5.94 29 -9 29 C-9 24.71 -9 20.42 -9 16 C-6.03 16 -3.06 16 0 16 C0 10.72 0 5.44 0 0 Z " fill="#0E0F0E" transform="translate(807,413)"/>
<path d="M0 0 C5.28 0 10.56 0 16 0 C16 28.05 16 56.1 16 85 C10.72 85 5.44 85 0 85 C0 56.95 0 28.9 0 0 Z " fill="#0F100E" transform="translate(1199,407)"/>
<path d="M0 0 C5.28 0 10.56 0 16 0 C16.33 2.64 16.66 5.28 17 8 C18.0828125 6.576875 18.0828125 6.576875 19.1875 5.125 C21.42440137 2.18507248 23.46116883 1.06987919 27 0 C30.69020108 -0.24900142 34.2952795 -0.08927037 38 0 C38 4.95 38 9.9 38 15 C34.77734375 15.16276042 31.5546875 15.32552083 28.33203125 15.48828125 C24.60531115 16.06061458 22.81843723 16.48336434 20 19 C15.71829003 27.53506425 16.43917147 37.22070696 16.3125 46.5625 C16.27927731 48.25588502 16.24478318 49.9492456 16.20898438 51.64257812 C16.12228646 55.7617372 16.06174539 59.88009181 16 64 C10.72 64 5.44 64 0 64 C0 42.88 0 21.76 0 0 Z " fill="#10100F" transform="translate(977,532)"/>
<path d="M0 0 C5.28 0 10.56 0 16 0 C16 20.79 16 41.58 16 63 C10.72 63 5.44 63 0 63 C0 42.21 0 21.42 0 0 Z " fill="#0F100E" transform="translate(1108,429)"/>
<path d="M0 0 C4.95 0 9.9 0 15 0 C15 20.79 15 41.58 15 63 C10.05 63 5.1 63 0 63 C0 42.21 0 21.42 0 0 Z " fill="#0D0D0C" transform="translate(845,429)"/>
<path d="M0 0 C4.79041626 2.12907389 7.22121113 4.97009571 9.30859375 9.66015625 C11.23335389 16.17389255 10.67812379 23.0690342 7.98828125 29.27734375 C5.75365798 33.17247759 3.23259849 35.58913384 -1 37 C-5.22026806 37.58286919 -9.22144533 37.89422693 -13.10546875 35.94140625 C-18.35961024 31.8075508 -20.4808349 27.07544601 -21.3125 20.546875 C-21.60705971 14.545221 -20.52742509 9.91117384 -17 5 C-11.52530483 -0.08364552 -7.31171951 -0.77616715 0 0 Z " fill="#FBFAF9" transform="translate(1007,442)"/>
<path d="M0 0 C4.21269693 2.33122552 7.31471999 5.45604407 9 10 C9.65923696 17.5084521 10.2390448 25.5001313 6 32 C2.31567137 35.82525924 -0.95149184 37.80674451 -6.3125 38.3125 C-12.02985137 37.8279787 -14.69737817 35.50829896 -18.375 31.25 C-20.40566932 27.35009531 -20.39150287 23.24557172 -20.4375 18.9375 C-20.44765137 18.25268555 -20.45780273 17.56787109 -20.46826172 16.86230469 C-20.36188097 10.65626176 -18.52169265 6.74994655 -14.5 2.125 C-10.18824662 -1.17601818 -5.14331797 -1.06593401 0 0 Z " fill="#FAFAF9" transform="translate(808,545)"/>
<path d="M0 0 C4.50523803 2.25261901 6.83993613 4.48800413 9 9 C9.31623194 11.72928105 9.47702293 14.15487416 9.4375 16.875 C9.42722778 17.94463989 9.42722778 17.94463989 9.41674805 19.03588867 C9.24642428 24.58640199 8.60832961 27.80653586 5 32 C1.19522883 35.46905607 -2.69372745 35.463966 -7.6328125 35.2734375 C-10.9203117 34.89369337 -12.57191406 34.28525735 -15 32 C-19.35724621 26.13281699 -19.84893162 20.11239055 -19 13 C-18.06246638 8.68013356 -16.7014667 5.66724881 -13.4375 2.5625 C-8.90195318 -0.3449018 -5.33199436 -0.64630235 0 0 Z " fill="#FBFBFA" transform="translate(877,545)"/>
<path d="M0 0 C5.28 0 10.56 0 16 0 C16 28.05 16 56.1 16 85 C10.72 85 5.44 85 0 85 C0 56.95 0 28.9 0 0 Z M1 2 C1 28.73 1 55.46 1 83 C5.29 83 9.58 83 14 83 C14 56.27 14 29.54 14 2 C9.71 2 5.42 2 1 2 Z " fill="#1B1B1A" transform="translate(1199,407)"/>
<path d="M0 0 C5.28 0 10.56 0 16 0 C16 20.79 16 41.58 16 63 C10.72 63 5.44 63 0 63 C0 42.21 0 21.42 0 0 Z M2 2 C2 21.47 2 40.94 2 61 C5.96 61 9.92 61 14 61 C14.33 41.53 14.66 22.06 15 2 C10.71 2 6.42 2 2 2 Z " fill="#020201" transform="translate(1108,429)"/>
<path d="M0 0 C-0.11380839 4.65579788 -0.27672611 8.68129506 -3.25 12.4375 C-6.59708758 15.55637707 -8.57489484 17.00856928 -13.2109375 16.9921875 C-19.27573565 16.54076239 -19.27573565 16.54076239 -21.7421875 14.69921875 C-23.25042778 12.66168919 -23.46184821 11.51801825 -23.5 9 C-23.5309375 8.319375 -23.561875 7.63875 -23.59375 6.9375 C-23 5 -23 5 -20.9453125 3.32421875 C-17.39074289 1.72607671 -14.24312045 1.25882159 -10.375 0.8125 C-9.70726562 0.73064453 -9.03953125 0.64878906 -8.3515625 0.56445312 C-5.54860934 0.2309017 -2.82482152 0 0 0 Z " fill="#F7F7F6" transform="translate(1172,465)"/>
<path d="M0 0 C3.41431771 1.84373156 4.53358054 3.11158199 6.3125 6.5 C7 9 7 9 7 13 C-1.58 13 -10.16 13 -19 13 C-17.85279188 4.96954315 -17.85279188 4.96954315 -14 1 C-9.82182975 -1.08908513 -4.55101082 -0.43748035 0 0 Z " fill="#F9F9F8" transform="translate(714,441)"/>
<path d="M0 0 C3.72355644 1.5844921 5.98976255 3.48208446 8 7 C8.33 8.98 8.66 10.96 9 13 C0.09 13 -8.82 13 -18 13 C-16.90079845 6.40479072 -16.28337 5.49231488 -12 1 C-8.31338558 -0.84330721 -4.03279906 -0.35620938 0 0 Z " fill="#FAF9F8" transform="translate(945,544)"/>
<path d="M0 0 C5.28 0 10.56 0 16 0 C16 2.31 16 4.62 16 7 C15.34 7.66 14.68 8.32 14 9 C14 6.69 14 4.38 14 2 C10.04 2 6.08 2 2 2 C2 21.47 2 40.94 2 61 C5.96 61 9.92 61 14 61 C13.98952637 60.01193359 13.97905273 59.02386719 13.96826172 58.00585938 C13.93181385 54.3083057 13.90901015 50.61076761 13.89013672 46.91308594 C13.88013525 45.31865765 13.86652969 43.72424743 13.84912109 42.12988281 C13.82461305 39.82612624 13.81345824 37.52261405 13.8046875 35.21875 C13.78920364 34.16512268 13.78920364 34.16512268 13.77340698 33.09020996 C13.77218593 27.59287835 14.04529893 21.40578593 17.625 17 C18.07875 16.67 18.5325 16.34 19 16 C18.51781006 17.44064819 18.51781006 17.44064819 18.02587891 18.91040039 C16.74527963 23.41310034 16.65007098 27.7763679 16.5859375 32.43359375 C16.56657135 33.31153091 16.5472052 34.18946808 16.5272522 35.0940094 C16.46787262 37.8750767 16.42123883 40.65618633 16.375 43.4375 C16.33678184 45.33269951 16.29772792 47.22788236 16.2578125 49.12304688 C16.16220571 53.74856129 16.07802245 58.37415692 16 63 C10.72 63 5.44 63 0 63 C0 42.21 0 21.42 0 0 Z " fill="#010101" transform="translate(871,429)"/>
<path d="M0 0 C3.21152592 2.72979703 3.89433954 4.34255711 4.5625 8.5 C4 12 4 12 2 14.9375 C-1.33588599 17.23092162 -3.09984094 17.75815509 -7.0625 17.48046875 C-10.5685303 16.61102978 -12.01216563 14.91963173 -14 12 C-14.69151325 7.69725091 -14.51557405 5.79054688 -12.125 2.125 C-8.35958654 -1.64041346 -4.96331778 -1.41248569 0 0 Z " fill="#0F0F0E" transform="translate(1121,405)"/>
<path d="M0 0 C3.14674823 2.74331897 3.89954133 4.37492386 4.5625 8.5 C4 12 4 12 2 14.9375 C-2.15080314 17.79117716 -4.0301078 17.7099846 -9 17 C-11.43119623 15.12984906 -12.64069173 13.71861655 -14 11 C-14.42576871 7.16808162 -14.30321315 5.47050317 -12.1875 2.1875 C-8.31236594 -1.68763406 -5.1029375 -1.25335307 0 0 Z " fill="#0F0F0E" transform="translate(857,405)"/>
<path d="M0 0 C4.95 0.33 9.9 0.66 15 1 C15 1.33 15 1.66 15 2 C10.71 2 6.42 2 2 2 C2 21.8 2 41.6 2 62 C6.29 62 10.58 62 15 62 C14.97905273 60.92105469 14.95810547 59.84210937 14.93652344 58.73046875 C14.86369576 54.69756532 14.81804616 50.6647191 14.78027344 46.63134766 C14.76025478 44.89133911 14.73303114 43.15139701 14.69824219 41.41162109 C14.64929048 38.89924654 14.62693413 36.38776725 14.609375 33.875 C14.58872986 33.10696045 14.56808472 32.3389209 14.54681396 31.54760742 C14.54455029 26.00189696 15.76689645 21.57500137 19 17 C19.99 16.34 20.98 15.68 22 15 C21.55394409 15.87893921 21.55394409 15.87893921 21.09887695 16.77563477 C16.27652779 26.53711516 16.45689743 35.91344931 16.3125 46.5625 C16.27927731 48.25588502 16.24478318 49.9492456 16.20898438 51.64257812 C16.12228646 55.7617372 16.06174539 59.88009181 16 64 C10.72 64 5.44 64 0 64 C0 42.88 0 21.76 0 0 Z " fill="#272726" transform="translate(977,532)"/>
<path d="M0 0 C22.44 0 44.88 0 68 0 C68 4.62 68 9.24 68 14 C59.42 14 50.84 14 42 14 C42 13.67 42 13.34 42 13 C50.25 13 58.5 13 67 13 C67 9.37 67 5.74 67 2 C45.55 2 24.1 2 2 2 C2 5.63 2 9.26 2 13 C9.92 13 17.84 13 26 13 C26 13.33 26 13.66 26 14 C17.42 14 8.84 14 0 14 C0 9.38 0 4.76 0 0 Z " fill="#010101" transform="translate(619,407)"/>
<path d="M0 0 C4.95 0 9.9 0 15 0 C15 3.3 15 6.6 15 10 C14.67 10 14.34 10 14 10 C14 7.36 14 4.72 14 2 C9.71 2 5.42 2 1 2 C1 21.47 1 40.94 1 61 C5.29 61 9.58 61 14 61 C13.97643433 59.48031616 13.97643433 59.48031616 13.95239258 57.92993164 C13.89766405 54.13362735 13.86349558 50.33735718 13.83520508 46.54077148 C13.82021544 44.90464391 13.79981668 43.26855585 13.77368164 41.63256836 C13.44963088 20.81071872 13.44963088 20.81071872 18.60473633 15.27758789 C19.06517334 14.85598389 19.52561035 14.43437988 20 14 C20.66 14.33 21.32 14.66 22 15 C21.360625 15.78375 20.72125 16.5675 20.0625 17.375 C16.52494237 21.87734607 16.78821923 25.6142784 16.68359375 31.1640625 C16.66281265 32.07127045 16.64203156 32.97847839 16.62062073 33.91317749 C16.55512865 36.8170398 16.49624186 39.72099405 16.4375 42.625 C16.39431445 44.59115542 16.35070015 46.55730147 16.30664062 48.5234375 C16.19944761 53.34886362 16.09817919 58.1743824 16 63 C10.72 63 5.44 63 0 63 C0 42.21 0 21.42 0 0 Z " fill="#020202" transform="translate(1041,429)"/>
<path d="M0 0 C0.66 0.33 1.32 0.66 2 1 C2 15.19 2 29.38 2 44 C-3.61 44 -9.22 44 -15 44 C-15 30.14 -15 16.28 -15 2 C-12.44218478 5.83672283 -12.74693544 8.94535987 -12.8046875 13.38671875 C-12.8075174 14.20372757 -12.81034729 15.02073639 -12.81326294 15.86250305 C-12.82445459 18.47098459 -12.8495571 21.0791223 -12.875 23.6875 C-12.88503112 25.45637525 -12.89415674 27.22525588 -12.90234375 28.99414062 C-12.92439058 33.32955949 -12.9589133 37.66472145 -13 42 C-9.04 42 -5.08 42 -1 42 C-0.67 28.14 -0.34 14.28 0 0 Z " fill="#313130" transform="translate(1096,448)"/>
<path d="M0 0 C0.33 0 0.66 0 1 0 C1 22.77 1 45.54 1 69 C5.29 69 9.58 69 14 69 C14 54.48 14 39.96 14 25 C14.66 24.67 15.32 24.34 16 24 C16 39.51 16 55.02 16 71 C10.72 71 5.44 71 0 71 C0 47.57 0 24.14 0 0 Z " fill="#010101" transform="translate(645,421)"/>
<path d="M0 0 C0.66 0 1.32 0 2 0 C2 15.84 2 31.68 2 48 C-2.95 48 -7.9 48 -13 48 C-13 45.36 -13 42.72 -13 40 C-12.67 40 -12.34 40 -12 40 C-12 41.98 -12 43.96 -12 46 C-8.04 46 -4.08 46 0 46 C0 30.82 0 15.64 0 0 Z " fill="#040404" transform="translate(1186,444)"/>
<path d="M0 0 C0.33 0 0.66 0 1 0 C1 4.29 1 8.58 1 13 C5.29 13 9.58 13 14 13 C14 17.29 14 21.58 14 26 C9.71 26 5.42 26 1 26 C1.06905248 30.46628401 1.15710231 34.93167585 1.26245117 39.3972168 C1.29561916 40.91501621 1.32367632 42.43293656 1.34643555 43.95092773 C1.38013278 46.13838019 1.43245204 48.32473264 1.48828125 50.51171875 C1.51446533 51.82615967 1.54064941 53.14060059 1.56762695 54.49487305 C2.0150641 58.12212041 2.88098449 60.06692731 5 63 C1.125 61.25 1.125 61.25 0 59 C-0.09870191 56.45814639 -0.13985877 53.94431311 -0.1328125 51.40234375 C-0.13424759 50.27814781 -0.13424759 50.27814781 -0.13571167 49.13124084 C-0.13639241 47.54672156 -0.13454551 45.96219948 -0.13037109 44.37768555 C-0.12501383 41.94378445 -0.13032347 39.51006727 -0.13671875 37.07617188 C-0.1360581 35.53906209 -0.1347772 34.00195242 -0.1328125 32.46484375 C-0.13483673 31.73257065 -0.13686096 31.00029755 -0.13894653 30.24583435 C-0.11495668 25.11495668 -0.11495668 25.11495668 1 24 C2.85287502 23.92773498 4.70833878 23.9161878 6.5625 23.9375 C7.57441406 23.94652344 8.58632813 23.95554687 9.62890625 23.96484375 C10.80259766 23.98224609 10.80259766 23.98224609 12 24 C12 21.03 12 18.06 12 15 C11.21753906 15.01160156 10.43507813 15.02320313 9.62890625 15.03515625 C8.61699219 15.04417969 7.60507812 15.05320312 6.5625 15.0625 C5.55316406 15.07410156 4.54382813 15.08570313 3.50390625 15.09765625 C1 15 1 15 0 14 C-0.07271741 11.64686445 -0.08370868 9.29166332 -0.0625 6.9375 C-0.05347656 5.64714844 -0.04445313 4.35679687 -0.03515625 3.02734375 C-0.02355469 2.02832031 -0.01195312 1.02929688 0 0 Z " fill="#060605" transform="translate(821,416)"/>
<path d="M0 0 C5.28 0 10.56 0 16 0 C15.67 20.79 15.34 41.58 15 63 C14.67 63 14.34 63 14 63 C14 43.2 14 23.4 14 3 C10.04 3 6.08 3 2 3 C2 5.31 2 7.62 2 10 C1.67 10 1.34 10 1 10 C0.67 6.7 0.34 3.4 0 0 Z " fill="#181817" transform="translate(886,532)"/>
<path d="M0 0 C5.28 0 10.56 0 16 0 C15.01 1.485 15.01 1.485 14 3 C10.04 3 6.08 3 2 3 C1.67 16.86 1.34 30.72 1 45 C0.67 45 0.34 45 0 45 C0 30.15 0 15.3 0 0 Z " fill="#2C2C2B" transform="translate(706,532)"/>
<path d="M0 0 C4.95 0 9.9 0 15 0 C14.67 0.99 14.34 1.98 14 3 C10.04 3 6.08 3 2 3 C2 7.29 2 11.58 2 16 C1.67 16 1.34 16 1 16 C0.67 10.72 0.34 5.44 0 0 Z " fill="#151514" transform="translate(807,413)"/>
<path d="M0 0 C3.72210585 0.33438653 7.07194915 1.17742359 10.65234375 2.23828125 C10.32234375 3.22828125 9.99234375 4.21828125 9.65234375 5.23828125 C8.81445312 4.91085937 7.9765625 4.5834375 7.11328125 4.24609375 C3.32105065 3.14180989 0.21680832 3.03895173 -3.72265625 3.11328125 C-5.59050781 3.14035156 -5.59050781 3.14035156 -7.49609375 3.16796875 C-8.43710937 3.19117188 -9.378125 3.214375 -10.34765625 3.23828125 C-7.25436801 -0.5557519 -4.62852185 -0.12913644 0 0 Z " fill="#161616" transform="translate(1003.34765625,427.76171875)"/>
<path d="M0 0 C-3.75399798 1.2039337 -7.33217412 1.09877617 -11.25 1.0625 C-12.51328125 1.05347656 -13.7765625 1.04445313 -15.078125 1.03515625 C-16.04234375 1.02355469 -17.0065625 1.01195312 -18 1 C-18 0.34 -18 -0.32 -18 -1 C-11.96066243 -2.71183038 -5.67573523 -2.92941173 0 0 Z " fill="#181817" transform="translate(950,430)"/>
<path d="M0 0 C0.66 0 1.32 0 2 0 C3.77641602 5.55130005 3.53883587 10.76365102 1 16 C0.67 16 0.34 16 0 16 C0 10.72 0 5.44 0 0 Z " fill="#171716" transform="translate(911,556)"/>
<path d="M0 0 C5.28 0 10.56 0 16 0 C15.01 1.485 15.01 1.485 14 3 C10.9609375 3.29296875 10.9609375 3.29296875 7.375 3.1875 C6.18648437 3.16042969 4.99796875 3.13335938 3.7734375 3.10546875 C2.85820313 3.07066406 1.94296875 3.03585937 1 3 C0.67 2.01 0.34 1.02 0 0 Z " fill="#232222" transform="translate(706,532)"/>
<path d="M0 0 C0.33 0 0.66 0 1 0 C1 4.62 1 9.24 1 14 C-1 13 -1 13 -2 10 C-2.23188622 7.27668512 -2.13093368 4.74960731 -2 2 C-1.34 1.34 -0.68 0.68 0 0 Z " fill="#191918" transform="translate(745,441)"/>
<path d="M0 0 C0.66 0.99 1.32 1.98 2 3 C3.32381517 4.67423683 4.65576661 6.34211215 6 8 C4.35 8.66 2.7 9.32 1 10 C0.34 9.34 -0.32 8.68 -1 8 C-0.96712417 5.27130593 -0.43602229 2.7033382 0 0 Z " fill="#131E1E" transform="translate(427,495)"/>
<path d="M0 0 C0 0.66 0 1.32 0 2 C0.99 2.33 1.98 2.66 3 3 C1.02 3 -0.96 3 -3 3 C-2.67 3.99 -2.34 4.98 -2 6 C-2.99 6.33 -3.98 6.66 -5 7 C-6 6 -6 6 -6.0625 3.4375 C-6.041875 2.633125 -6.02125 1.82875 -6 1 C-4 0 -4 0 0 0 Z " fill="#131E1D" transform="translate(354,466)"/>
<path d="M0 0 C3.96 0 7.92 0 12 0 C12 0.99 12 1.98 12 3 C7.71 3 3.42 3 -1 3 C-0.67 2.01 -0.34 1.02 0 0 Z " fill="#1B1C1B" transform="translate(1155,428)"/>
<path d="M0 0 C5.19209404 -0.21192221 9.126739 0.4087311 14 2 C14 2.33 14 2.66 14 3 C9.38 3 4.76 3 0 3 C0 2.01 0 1.02 0 0 Z " fill="#151615" transform="translate(864,617)"/>
<path d="M0 0 C1.8871875 0.0309375 1.8871875 0.0309375 3.8125 0.0625 C3.4825 1.0525 3.1525 2.0425 2.8125 3.0625 C-1.8075 3.0625 -6.4275 3.0625 -11.1875 3.0625 C-7.144351 1.0409255 -4.44251089 -0.07282805 0 0 Z " fill="#161716" transform="translate(772.1875,489.9375)"/>
<path d="M0 0 C0.70189453 0.00451172 1.40378906 0.00902344 2.12695312 0.01367188 C3.85550538 0.02543073 5.58401365 0.04336546 7.3125 0.0625 C7.3125 0.3925 7.3125 0.7225 7.3125 1.0625 C6.53003906 1.12308594 5.74757813 1.18367188 4.94140625 1.24609375 C3.92949219 1.32988281 2.91757813 1.41367187 1.875 1.5 C0.86566406 1.58121094 -0.14367188 1.66242188 -1.18359375 1.74609375 C-3.62390779 1.79461468 -3.62390779 1.79461468 -4.6875 3.0625 C-6.68708364 3.10330783 -8.68795254 3.10504356 -10.6875 3.0625 C-10.6875 2.4025 -10.6875 1.7425 -10.6875 1.0625 C-7.06882441 -0.1437252 -3.76243749 -0.04566918 0 0 Z " fill="#070707" transform="translate(1161.6875,454.9375)"/>
<path d="M0 0 C0.66 0 1.32 0 2 0 C1.979375 1.0725 1.95875 2.145 1.9375 3.25 C1.9857984 6.14790424 2.13155885 8.28612141 3 11 C1.68 10.34 0.36 9.68 -1 9 C-0.67 6.03 -0.34 3.06 0 0 Z " fill="#121E1C" transform="translate(496,494)"/>
<path d="M0 0 C2.64 0.33 5.28 0.66 8 1 C7.67 1.99 7.34 2.98 7 4 C4.69 3.67 2.38 3.34 0 3 C0 2.01 0 1.02 0 0 Z " fill="#191919" transform="translate(1113,404)"/>
<path d="M0 0 C2.3431213 0.25561323 4.67843403 0.59270772 7 1 C7.33 1.66 7.66 2.32 8 3 C5.03 3 2.06 3 -1 3 C-0.67 2.01 -0.34 1.02 0 0 Z " fill="#191919" transform="translate(850,404)"/>
<path d="M0 0 C1.42944945 2.35438733 2.08661261 3.48032433 1.625 6.25 C1.41875 6.8275 1.2125 7.405 1 8 C-0.32 8 -1.64 8 -3 8 C-2.690625 7.236875 -2.38125 6.47375 -2.0625 5.6875 C-1.32106407 3.81210323 -0.63771783 1.91315348 0 0 Z " fill="#141D1D" transform="translate(464,496)"/>
<path d="M0 0 C0.33 0 0.66 0 1 0 C1 2.97 1 5.94 1 9 C0.67 8.34 0.34 7.68 0 7 C-0.66 7 -1.32 7 -2 7 C-2.125 4.625 -2.125 4.625 -2 2 C-1.34 1.34 -0.68 0.68 0 0 Z " fill="#1E1E1D" transform="translate(1148,470)"/>
<path d="M0 0 C1.32 1.32 2.64 2.64 4 4 C3.34 6.31 2.68 8.62 2 11 C1.67 11 1.34 11 1 11 C0.67 7.37 0.34 3.74 0 0 Z " fill="#F5F4F3" transform="translate(642,540)"/>
<path d="M0 0 C-0.99 0 -1.98 0 -3 0 C-3 0.66 -3 1.32 -3 2 C-5.31 2.33 -7.62 2.66 -10 3 C-6.81859267 -0.48439851 -4.56758339 -1.41752588 0 0 Z " fill="#15BAB5" transform="translate(359,391)"/>
<path d="M0 0 C0.8353125 0.556875 0.8353125 0.556875 1.6875 1.125 C1.6875 1.455 1.6875 1.785 1.6875 2.125 C-1.6875 2.75 -1.6875 2.75 -5.3125 3.125 C-5.9725 2.465 -6.6325 1.805 -7.3125 1.125 C-2.88173077 -1.09038462 -2.88173077 -1.09038462 0 0 Z " fill="#131413" transform="translate(1006.3125,532.875)"/>
<path d="M0 0 C2.29013653 3.4352048 2.17842973 4.985331 2 9 C1.01 8.67 0.02 8.34 -1 8 C-0.67 5.36 -0.34 2.72 0 0 Z " fill="#1F1F1E" transform="translate(971,449)"/>
</svg>
